# xmcd
#
# Track frame offsets: 
#        150
#        19840
#        42101
#        55710
#        72356
#        93189
#        111033
#        126941
#        147578
#        181876
#        197979
#        227547
#        255770
#
# Disc length: 3843 seconds
#
# Revision: 0
# Processed by: cddbd v1.5.2PL0 Copyright (c) Steve Scherf et al.
# Submitted via: ExactAudioCopy v1.3
#
DISCID=ab0f010d
DTITLE=Jeff Strahan - Blue 'til I Die
DYEAR=2012
DGENRE=Texas Blues
TTITLE0=Good Outweighs Bad
TTITLE1=River's Gonna Rise
TTITLE2=She Only Hates Me
TTITLE3=Betty Sue
TTITLE4=Less Is More
TTITLE5=U-Turns
TTITLE6=Do Me
TTITLE7=Mayhem
TTITLE8=Sancho
TTITLE9=Shine Her Up
TTITLE10=Wishing Bone
TTITLE11=Gonna Be Blue
TTITLE12=Audio Liner Notes
EXTD=
EXTT0=
EXTT1=
EXTT2=
EXTT3=
EXTT4=
EXTT5=
EXTT6=
EXTT7=
EXTT8=
EXTT9=
EXTT10=
EXTT11=
EXTT12=
PLAYORDER=
